<?xml version="1.0" encoding="iso-8859-1"?>
<!-- Generator: Adobe Illustrator 19.1.0, SVG Export Plug-In . SVG Version: 6.00 Build 0)  -->
<svg version="1.1" id="Capa_1" xmlns="http://www.w3.org/2000/svg" xmlns:xlink="http://www.w3.org/1999/xlink" x="0px" y="0px"
	 viewBox="0 0 488.258 488.258" style="enable-background:new 0 0 488.258 488.258;" xml:space="preserve">
<g>
	<g>
		<path d="M253.4,272.029c1.2-8.7,2-17.5,2.5-26.3c-0.5-0.8-1.1-1.5-1.6-2.4c-4-6.2-7.2-14.1-10.3-24.8c-3.5-12.5-7-30.5,1.9-45.3
			c-1.1-7.6-1.3-14.6-0.8-21.3c-5.2-18.1-12.1-35.7-20.7-52.5c11.2,4.3,21.7,10,31.3,16.8c4.3-7.9,9.8-15.4,16.6-22.4
			c0.4-0.4,0.7-0.7,1.1-1.1c-29.1-20.9-63.9-32.2-100.5-32.2c-46.2,0-89.6,18-122.2,50.6c-32.8,32.7-50.7,76.1-50.7,122.3
			s18,89.6,50.6,122.2c32.7,32.7,76.1,50.6,122.2,50.6c2.3,0,4.6-0.1,7-0.1c-1.1-2.3-1.9-4.8-2.4-7.4c-1-5.7-1.9-14.6-2.5-21.7
			c-0.7,0-1.4,0-2.1,0c-4.6,0-9.1-0.2-13.5-0.6c-14.9-23-25.9-48-32.8-74.2h65c8-9.2,18.5-15.7,30.9-18.8
			C233.8,280.529,244.5,276.229,253.4,272.029z M161.9,90.229c3.6-0.3,7.2-0.4,10.9-0.4c4.2,0,8.4,0.2,12.6,0.6
			c14.8,23,25.8,47.9,32.8,74h-90.6C135,138.129,146.5,113.129,161.9,90.229z M122.7,98.829c-11.1,20.8-19.6,42.8-25.3,65.5H46.9
			C63.4,134.429,90.3,110.929,122.7,98.829z M29.2,233.429c0-13.8,2-27.2,5.6-39.8h56.8c-2,13.7-3,27.6-3,41.7
			c0,12.7,0.8,25.3,2.4,37.7H34.7C31.1,260.429,29.2,247.129,29.2,233.429z M46.8,302.229h49.6c5.3,22.5,13.3,44.2,23.9,64.9
			C88.9,354.729,62.9,331.629,46.8,302.229z M120.6,273.029c-1.8-12.4-2.7-25-2.7-37.7c0-14.1,1.1-28,3.3-41.7h103.1
			c1.8,12.5,2.8,25.2,2.8,38c0,14-1.1,27.8-3.3,41.4H120.6z"/>
		<path d="M275.2,175.229c0.6,3.1,1.4,6.3,2.5,9.5c-5.9-0.6-12.8,2.9-6.3,26c4.8,16.9,9.2,21.6,12.6,21.9
			c3.1,20.1,18.6,45.6,44.1,54.6c10.4,3.7,21.9,3.7,32.3-0.1c25.1-9,41.1-34.5,44.2-54.6c3.4-0.3,7.8-5,12.6-21.9
			c6.5-23.1-0.4-26.5-6.3-26c1.1-3.2,2-6.4,2.5-9.5c10-59.8-19.5-61.9-19.5-61.9s-4.9-9.4-17.7-16.5c-8.6-5.1-20.6-9.1-36.5-7.7
			c-5.1,0.2-10,1.2-14.5,2.8l0,0c-5.8,2-11.1,4.8-16,8.2c-5.9,3.8-11.5,8.3-16.4,13.6c-7.8,8-14.8,18.3-17.8,31.2
			C272.6,154.429,273.1,164.429,275.2,175.229L275.2,175.229z"/>
		<path d="M461,311.129c-35.9-9.1-65-29.6-65-29.6l-22.7,71.9l-4.3,13.5l-0.1-0.2l-3.7,11.5l-12-34c29.5-41.1-6-40.7-7.9-40.7
			c-2-0.1-37.4-0.5-7.9,40.7l-12,34l-3.7-11.5l-0.1,0.2l-4.3-13.5l-22.7-71.9c0,0-29.1,20.5-65,29.6c-26.7,6.8-28,37.7-27,52.9
			c0,0,1.6,20.7,3.1,29.8c0,0,52.2,33.9,139.6,33.9s139.6-33.9,139.6-33.9c1.6-9.1,3.1-29.8,3.1-29.8
			C489.1,348.829,487.8,317.929,461,311.129z"/>
	</g>
</g>
<g>
</g>
<g>
</g>
<g>
</g>
<g>
</g>
<g>
</g>
<g>
</g>
<g>
</g>
<g>
</g>
<g>
</g>
<g>
</g>
<g>
</g>
<g>
</g>
<g>
</g>
<g>
</g>
<g>
</g>
</svg>
