<svg xmlns="http://www.w3.org/2000/svg" viewBox="0 0 512 512">
  <g id="surface1">
    <path style=" stroke:none;fill-rule:nonzero;fill:rgb(0.392157%,0%,0.784314%);fill-opacity:1;" d="M 77.097656 50.273438 C 77.097656 44.492188 72.425781 39.816406 66.644531 39.816406 C 60.863281 39.816406 56.1875 44.488281 56.1875 50.273438 L 56.1875 355.359375 L 0 355.359375 L 0 489 L 133.285156 489 L 133.285156 355.359375 L 77.097656 355.359375 Z M 112.378906 376.265625 L 112.378906 468.09375 L 20.90625 468.09375 L 20.90625 376.265625 C 20.90625 376.265625 112.378906 376.265625 112.378906 376.265625 Z M 112.378906 376.265625 "/>
    <path style=" stroke:none;fill-rule:nonzero;fill:rgb(0.392157%,0%,0.784314%);fill-opacity:1;" d="M 264.390625 50.273438 C 264.390625 44.492188 259.71875 39.816406 253.933594 39.816406 C 248.152344 39.816406 243.480469 44.488281 243.480469 50.273438 L 243.480469 185.996094 L 187.292969 185.996094 L 187.292969 319.636719 L 243.480469 319.636719 L 243.480469 455.351562 C 243.480469 461.140625 248.164062 465.804688 253.933594 465.804688 C 259.707031 465.804688 264.390625 461.140625 264.390625 455.351562 L 264.390625 319.636719 L 320.578125 319.636719 L 320.578125 185.996094 L 264.390625 185.996094 Z M 299.671875 206.902344 L 299.671875 298.730469 L 208.199219 298.730469 L 208.199219 206.902344 Z M 299.671875 206.902344 "/>
    <path style=" stroke:none;fill-rule:nonzero;fill:rgb(0.392157%,0%,0.784314%);fill-opacity:1;" d="M 378.714844 23 L 378.714844 156.640625 L 434.902344 156.640625 L 434.902344 461.726562 C 434.902344 467.507812 439.585938 472.183594 445.355469 472.183594 C 451.136719 472.183594 455.8125 467.511719 455.8125 461.726562 L 455.8125 156.640625 L 512 156.640625 L 512 23 Z M 491.09375 135.734375 L 399.621094 135.734375 L 399.621094 43.90625 L 491.09375 43.90625 Z M 491.09375 135.734375 "/>
  </g>
</svg>
