<svg height="512pt" viewBox="0 0 512 512" width="512pt" xmlns="http://www.w3.org/2000/svg"><path d="m210 182h-150v90h150zm-30 60h-90v-30h90zm0 0"/><path d="m180 302h30v30h-30zm0 0"/><path d="m120 302h30v30h-30zm0 0"/><path d="m60 302h30v30h-30zm0 0"/><path d="m60 422h30v30h-30zm0 0"/><path d="m120 422h30v30h-30zm0 0"/><path d="m120 362h30v30h-30zm0 0"/><path d="m60 362h30v30h-30zm0 0"/><path d="m180 362h30v90h-30zm0 0"/><path d="m300 212h152v30h-152zm0 0"/><path d="m300 272h152v30h-152zm0 0"/><path d="m300 332h152v30h-152zm0 0"/><path d="m300 392h152v30h-152zm0 0"/><path d="m383.285156 0h-263.253906l.089844 122h-120.121094v390h512v-381.140625zm8.714844 51.640625 69.207031 70.359375h-69.207031zm-152 430.359375h-210v-330h210zm242 0h-212v-360h-120l-.214844-92h212.214844v122h120zm0 0"/></svg>