<svg xmlns="http://www.w3.org/2000/svg" viewBox="0 0 512 512"><path d="M 227.820312 485.011719 C 229.804688 485.804688 231.789062 486.203125 233.773438 486.203125 C 238.933594 486.203125 244.09375 483.820312 247.269531 479.058594 L 417.539062 232.980469 C 421.109375 228.21875 421.507812 221.46875 418.730469 216.308594 C 415.949219 211.148438 410.394531 207.578125 404.441406 207.578125 L 298.863281 206.785156 L 329.425781 44.851562 C 331.015625 37.707031 327.046875 30.164062 320.296875 26.988281 C 313.550781 23.8125 305.613281 25.796875 300.851562 31.75 L 120.261719 259.175781 C 116.292969 263.9375 115.496094 270.683594 118.277344 276.242188 C 121.054688 281.796875 126.609375 285.371094 132.960938 285.371094 L 249.648438 286.164062 L 218.292969 467.148438 C 216.707031 474.691406 220.675781 482.234375 227.820312 485.011719 Z M 166.300781 253.222656 L 285.371094 103.195312 L 263.144531 220.277344 C 262.351562 225.042969 263.542969 229.804688 266.714844 233.773438 C 269.890625 237.347656 274.257812 239.726562 279.019531 239.726562 L 373.085938 240.125 L 262.351562 400.472656 L 284.179688 272.667969 C 284.972656 267.90625 283.78125 263.144531 280.609375 259.570312 C 277.828125 256 273.464844 254.015625 268.699219 254.015625 Z M 166.300781 253.222656 "/></svg>
